<?xml version="1.0" standalone="no"?>
<!DOCTYPE svg PUBLIC "-//W3C//DTD SVG 1.1//EN" "http://www.w3.org/Graphics/SVG/1.1/DTD/svg11.dtd" >
<svg xmlns="http://www.w3.org/2000/svg">
<metadata></metadata>
<defs>
<font id="proxima_nova_alt_cn_rgbold" horiz-adv-x="1026" >
<font-face units-per-em="2048" ascent="1618" descent="-430" />
<missing-glyph horiz-adv-x="428" />
<glyph unicode="&#xfb01;" horiz-adv-x="1056" d="M29 774v215h127v68q0 157 78 243t210 86q99 0 166 -34l-45 -191q-27 17 -63 17q-46 0 -73.5 -31.5t-27.5 -89.5v-68h162v-215h-162v-774h-245v774h-127zM674 1247q0 61 43.5 105.5t103.5 44.5q61 0 105.5 -44.5t44.5 -105.5t-44 -104t-106 -43q-60 0 -103.5 43t-43.5 104 zM698 0v989h246v-989h-246z" />
<glyph unicode="&#xfb02;" horiz-adv-x="1132" d="M29 774v215h127v68q0 157 78 243t210 86q99 0 166 -34l-45 -191q-27 17 -63 17q-46 0 -73.5 -31.5t-27.5 -89.5v-68h162v-215h-162v-774h-245v774h-127zM698 238v1128h246v-1071q0 -48 19 -75t55 -27q51 0 72 28l51 -188q-65 -58 -191 -58q-252 0 -252 263z" />
<glyph horiz-adv-x="0" />
<glyph horiz-adv-x="682" />
<glyph horiz-adv-x="0" />
<glyph horiz-adv-x="0" />
<glyph unicode="&#xd;" horiz-adv-x="428" />
<glyph unicode=" "  horiz-adv-x="428" />
<glyph unicode="&#x09;" horiz-adv-x="428" />
<glyph unicode="&#xa0;" horiz-adv-x="428" />
<glyph unicode="!" horiz-adv-x="516" d="M100 135q0 65 47 112.5t111 47.5t111 -47.5t47 -112.5q0 -63 -47 -110.5t-111 -47.5t-111 47.5t-47 110.5zM109 1366h299l-41 -930h-215z" />
<glyph unicode="&#x22;" horiz-adv-x="815" d="M92 1251q0 57 39.5 96t95.5 39t95.5 -39t39.5 -96q0 -16 -20 -134.5t-40 -228.5l-21 -110h-109q-80 436 -80 473zM455 1251q0 57 38.5 96t94.5 39t94.5 -39t38.5 -96q0 -16 -20 -134.5t-40 -228.5l-20 -110h-106q-80 436 -80 473z" />
<glyph unicode="#" horiz-adv-x="1099" d="M33 350l45 158h160l98 348h-162l41 158h166l98 352h185l-101 -352h162l98 352h183l-101 -352h162l-41 -158h-164l-100 -348h170l-43 -158h-172l-99 -350h-182l101 350h-162l-99 -350h-184l101 350h-160zM422 508h158l100 348h-162z" />
<glyph unicode="$" horiz-adv-x="1032" d="M45 154l133 213q99 -117 260 -144v355q-43 17 -73 30.5t-70 35.5t-67 43.5t-56 53.5t-46 66.5t-28.5 81.5t-11.5 100q0 145 94.5 253.5t257.5 137.5v193h185v-191q196 -21 329 -145l-129 -209q-92 86 -200 107v-324q61 -26 102 -46.5t93 -57.5t83.5 -77.5t53.5 -102 t22 -134.5q0 -159 -92.5 -269.5t-261.5 -137.5v-191h-185v185q-245 20 -393 174zM367 1006q0 -72 102 -127v258q-47 -14 -74.5 -49t-27.5 -82zM592 229q51 17 78.5 55t27.5 87q0 80 -106 139v-281z" />
<glyph unicode="%" horiz-adv-x="1376" d="M47 1044q0 147 84.5 244.5t220.5 97.5q138 0 222.5 -97t84.5 -245q0 -145 -84.5 -241t-222.5 -96q-136 0 -220.5 96t-84.5 241zM217 1044q0 -84 37.5 -135t97.5 -51q62 0 101 51t39 135q0 87 -39 139t-101 52q-60 0 -97.5 -52t-37.5 -139zM264 0l723 1366h129l-723 -1366 h-129zM717 313q0 147 84.5 244.5t220.5 97.5q137 0 222 -97.5t85 -244.5q0 -145 -85 -241.5t-222 -96.5q-136 0 -220.5 96.5t-84.5 241.5zM885 313q0 -84 37.5 -135t99.5 -51t100.5 51t38.5 135q0 87 -38.5 139t-100.5 52t-99.5 -52t-37.5 -139z" />
<glyph unicode="&#x26;" horiz-adv-x="1126" d="M51 365q0 74 20 135.5t58 109.5t79 82.5t97 69.5q-84 171 -84 291q0 145 94.5 239t239.5 94q131 0 222 -81t91 -209q0 -42 -9 -79.5t-22 -67t-37 -58.5t-45 -49.5t-54.5 -45t-57 -39.5t-61.5 -38q58 -93 94 -144q85 -122 94 -133q59 123 94 254l197 -90 q-72 -207 -160 -338q156 -193 219 -268h-286q-14 16 -41.5 50.5t-38.5 47.5q-142 -123 -320 -123q-168 0 -275.5 103t-107.5 287zM303 383q0 -93 51 -153t123 -60q81 0 160 76q-98 132 -129 178q-49 69 -109 168q-96 -89 -96 -209zM453 1051q0 -72 45 -174q76 47 116.5 95 t40.5 113q0 58 -26.5 90.5t-67.5 32.5q-50 0 -79 -41.5t-29 -115.5z" />
<glyph unicode="'" horiz-adv-x="454" d="M92 1251q0 57 39.5 96t95.5 39t95.5 -39t39.5 -96q0 -16 -20 -134.5t-40 -228.5l-21 -110h-109q-80 436 -80 473z" />
<glyph unicode="(" horiz-adv-x="569" d="M90 498q0 245 71 479t201 426l168 -98q-87 -193 -129.5 -386t-42.5 -421q0 -227 42.5 -420.5t129.5 -384.5l-168 -101q-130 192 -201 426.5t-71 479.5z" />
<glyph unicode=")" horiz-adv-x="569" d="M39 -307q87 191 129.5 384.5t42.5 420.5q0 228 -42.5 421t-129.5 386l168 98q130 -192 201 -426t71 -479t-71 -479.5t-201 -426.5z" />
<glyph unicode="*" horiz-adv-x="690" d="M41 969l201 102l-201 105l61 106l191 -123l-10 227h125l-13 -227l191 123l63 -106l-203 -105l203 -102l-63 -109l-191 123l13 -227h-125l10 227l-191 -123z" />
<glyph unicode="+" horiz-adv-x="909" d="M59 614v154h312v342h168v-342h311v-154h-311v-358h-168v358h-312z" />
<glyph unicode="," horiz-adv-x="518" d="M100 139q0 64 45.5 110t108.5 46q72 0 123 -55t51 -148q0 -110 -55 -206t-150 -162l-106 86q51 29 97 85.5t56 108.5q-9 -6 -37 -6q-58 0 -95.5 39.5t-37.5 101.5z" />
<glyph unicode="-" horiz-adv-x="555" d="M61 391v209h433v-209h-433z" />
<glyph unicode="." horiz-adv-x="516" d="M100 137q0 63 47 110.5t111 47.5t112 -47.5t48 -110.5q0 -65 -48 -112.5t-112 -47.5t-111 47.5t-47 112.5z" />
<glyph unicode="/" horiz-adv-x="569" d="M0 -41l393 1448h176l-393 -1448h-176z" />
<glyph unicode="0" horiz-adv-x="1105" d="M68 682q0 136 29 259t85.5 224t152 161t218.5 60t218.5 -60t152 -161t85.5 -224t29 -259q0 -108 -17.5 -209t-55.5 -192t-94 -158.5t-137.5 -107.5t-180.5 -40t-180.5 40t-137.5 107.5t-94 158.5t-55.5 192t-17.5 209zM346 682q0 -105 10 -185.5t33 -145t64.5 -98.5 t99.5 -34t99.5 34t64.5 98.5t33 145t10 185.5t-10 185t-33 144t-64.5 98t-99.5 34t-99.5 -34t-64.5 -98t-33 -144t-10 -185z" />
<glyph unicode="1" horiz-adv-x="776" d="M16 965l402 401h237v-1366h-274v1012l-205 -213z" />
<glyph unicode="2" horiz-adv-x="1073" d="M57 1161q83 110 201.5 167.5t261.5 57.5q200 0 328.5 -112t128.5 -301q0 -151 -106 -305t-377 -426h491v-242h-895v223q140 134 219.5 211t158 157.5t115 125.5t67 93.5t39.5 83.5t9 75q0 80 -52.5 127t-131.5 47q-175 0 -291 -154z" />
<glyph unicode="3" horiz-adv-x="1054" d="M41 197l166 172q54 -69 131 -109.5t162 -40.5q104 0 157.5 49.5t53.5 132.5q0 172 -224 172q-105 0 -125 -2v246q20 -2 119 -2q98 0 154.5 40.5t56.5 119.5q0 82 -54 125t-146 43q-164 0 -277 -135l-156 159q75 104 191 161.5t262 57.5q207 0 329 -96t122 -274 q0 -115 -75 -202t-183 -109q110 -16 194 -106.5t84 -221.5q0 -180 -128.5 -291t-342.5 -111q-157 0 -280 61.5t-191 160.5z" />
<glyph unicode="4" horiz-adv-x="1056" d="M43 291v231l481 844h350v-834h140v-241h-140v-291h-274v291h-557zM289 532h311v553z" />
<glyph unicode="5" horiz-adv-x="1085" d="M80 190l166 177q113 -148 284 -148q96 0 152.5 62t56.5 153q0 102 -51.5 158.5t-144.5 56.5q-136 0 -228 -112l-198 53v776h823v-242h-549v-350q41 51 108.5 82t143.5 31q163 0 270 -119t107 -326q0 -208 -131 -337.5t-348 -129.5q-301 0 -461 215z" />
<glyph unicode="6" horiz-adv-x="1081" d="M68 680q0 154 36.5 283.5t104.5 223.5t172.5 146.5t234.5 52.5q107 0 198.5 -39t152.5 -108l-133 -203q-43 54 -94 80.5t-122 26.5q-122 0 -198 -119t-76 -289v-24q42 75 121.5 124.5t173.5 49.5q162 0 272.5 -118t110.5 -327q0 -200 -125.5 -332.5t-323.5 -132.5 q-106 0 -191.5 37t-143 101.5t-96.5 154.5t-56.5 192.5t-17.5 219.5zM346 510q3 -54 15 -101.5t35 -92t64.5 -71t96.5 -26.5q88 0 137 64t49 147q0 112 -55 165.5t-137 53.5q-63 0 -116 -38.5t-89 -100.5z" />
<glyph unicode="7" horiz-adv-x="962" d="M43 1124v242h881v-190l-430 -1176h-297l417 1124h-571z" />
<glyph unicode="8" horiz-adv-x="1077" d="M66 350q0 119 76.5 216t187.5 139q-107 38 -176.5 122t-69.5 203q0 73 26 133t69.5 100.5t102.5 69t123.5 41t133.5 12.5t133 -12.5t123 -41t102.5 -69t69.5 -100.5t26 -133q0 -119 -70.5 -203t-177.5 -122q112 -42 189.5 -139t77.5 -216q0 -177 -131.5 -276t-341.5 -99 q-213 0 -343 98t-130 277zM342 389q0 -81 55 -125.5t142 -44.5q84 0 140 45t56 125q0 45 -22.5 84.5t-55.5 63.5t-63.5 38.5t-54.5 18.5q-24 -4 -55 -18.5t-64 -38.5t-55.5 -63.5t-22.5 -84.5zM358 981q0 -40 20.5 -74t52 -54.5t58 -32t50.5 -17.5q18 4 39 12t46.5 23 t45.5 34t33.5 47.5t13.5 61.5q0 76 -48.5 119t-129.5 43q-83 0 -132 -43t-49 -119z" />
<glyph unicode="9" horiz-adv-x="1081" d="M59 924q0 200 125 332.5t324 132.5q106 0 191.5 -37t143.5 -101.5t97 -154.5t56.5 -193t17.5 -219q0 -207 -62.5 -365t-188 -250t-298.5 -92q-107 0 -198 39.5t-152 108.5l133 203q43 -54 93.5 -80.5t121.5 -26.5q84 0 147.5 57t95 148.5t31.5 200.5q0 16 -2 26 q-40 -74 -120 -124t-173 -50q-163 0 -273 117.5t-110 327.5zM338 934q0 -112 55 -165.5t135 -53.5q64 0 117.5 38t89.5 101q-3 42 -10 80.5t-23 78t-38.5 68t-58 46.5t-79.5 18q-89 0 -138.5 -64t-49.5 -147z" />
<glyph unicode=":" horiz-adv-x="505" d="M100 137q0 63 47 110.5t111 47.5t112 -47.5t48 -110.5q0 -65 -48 -112.5t-112 -47.5t-111 47.5t-47 112.5zM100 846q0 64 47 111t111 47q65 0 112.5 -47t47.5 -111t-48 -112t-112 -48t-111 47.5t-47 112.5z" />
<glyph unicode=";" horiz-adv-x="516" d="M100 145q0 64 45.5 110t108.5 46q72 0 123 -55t51 -148q0 -108 -55.5 -205t-149.5 -163l-106 88q52 29 97.5 84.5t55.5 107.5q-18 -6 -37 -6q-57 0 -95 40t-38 101zM100 846q0 64 47 111t111 47q65 0 112.5 -47t47.5 -111t-48 -112t-112 -48t-111 47.5t-47 112.5z" />
<glyph unicode="&#x3c;" horiz-adv-x="909" d="M59 598v176l791 348v-184l-612 -254l612 -250v-184z" />
<glyph unicode="=" horiz-adv-x="909" d="M59 414v153h791v-153h-791zM59 801v153h791v-153h-791z" />
<glyph unicode="&#x3e;" horiz-adv-x="909" d="M59 250v184l611 250l-611 254v184l791 -348v-176z" />
<glyph unicode="?" horiz-adv-x="802" d="M35 1223q69 79 163.5 121t202.5 42q168 0 267.5 -86.5t99.5 -222.5q0 -74 -30 -137t-73 -106.5t-85.5 -83t-72.5 -84.5t-30 -93q0 -53 37 -90l-209 -69q-59 65 -59 180q0 64 25.5 118t61.5 90.5t72 69.5t61.5 72t25.5 82q0 50 -37 85.5t-101 35.5q-110 0 -184 -96z M242 137q0 63 47.5 110.5t111.5 47.5t111 -47.5t47 -110.5q0 -65 -47 -112.5t-111 -47.5t-111.5 47.5t-47.5 112.5z" />
<glyph unicode="@" horiz-adv-x="1458" d="M72 469q0 163 62.5 317t166.5 268t246 183.5t293 69.5q243 0 393.5 -158t150.5 -404q0 -125 -32 -234t-85 -181.5t-119.5 -114t-135.5 -41.5q-79 0 -128.5 40.5t-60.5 104.5l-2 15q-49 -72 -117 -116t-149 -44q-113 0 -184.5 78.5t-71.5 224.5q0 137 57 262t156.5 203 t214.5 78q75 0 127 -36.5t76 -98.5l22 106h219l-108 -510q-4 -20 -4 -49q0 -90 67 -90q59 0 116.5 109.5t57.5 291.5q0 224 -126.5 355t-339.5 131q-136 0 -262.5 -64.5t-217.5 -169t-145.5 -242.5t-54.5 -280q0 -153 58 -275t171.5 -194t265.5 -72q169 0 340 115l41 -61 q-187 -129 -391 -129q-169 0 -298.5 78t-199 217t-69.5 317zM526 506q0 -72 33 -115t94 -43q106 0 191 133l55 258q-14 44 -46 75.5t-81 31.5q-72 0 -130 -54.5t-87 -131t-29 -154.5z" />
<glyph unicode="A" horiz-adv-x="1140" d="M-4 0l410 1366h329l408 -1366h-297l-64 242h-424l-65 -242h-297zM412 483h317l-160 594z" />
<glyph unicode="B" horiz-adv-x="1144" d="M121 0v1366h567q89 0 160 -28t114.5 -76.5t66 -110.5t22.5 -133q0 -123 -62 -206t-160 -107q104 -17 174 -112.5t70 -221.5q0 -165 -93 -268t-273 -103h-586zM395 242h238q77 0 118.5 43.5t41.5 122.5q0 73 -42 120t-118 47h-238v-333zM395 815h228q72 0 109.5 42 t37.5 114q0 70 -38 111.5t-109 41.5h-228v-309z" />
<glyph unicode="C" horiz-adv-x="1146" d="M68 682q0 207 70 367t202.5 250t308.5 90q312 0 457 -328l-227 -100q-32 85 -91.5 134.5t-138.5 49.5q-139 0 -220 -128.5t-81 -334.5q0 -205 81 -334t220 -129q81 0 141 55t91 144l227 -99q-144 -344 -459 -344q-265 0 -423 196.5t-158 510.5z" />
<glyph unicode="D" horiz-adv-x="1226" d="M121 0v1366h440q141 0 255 -51t189 -142t115.5 -216.5t40.5 -274.5q0 -200 -69 -353.5t-205.5 -241t-323.5 -87.5h-442zM395 242h166q151 0 234.5 120t83.5 320q0 207 -81.5 324.5t-234.5 117.5h-168v-882z" />
<glyph unicode="E" horiz-adv-x="987" d="M121 0v1366h784v-242h-510v-309h496v-240h-496v-333h510v-242h-784z" />
<glyph unicode="F" horiz-adv-x="970" d="M121 0v1366h784v-242h-510v-309h496v-240h-496v-575h-274z" />
<glyph unicode="G" horiz-adv-x="1206" d="M68 682q0 320 158.5 513.5t422.5 193.5q166 0 280 -87t177 -229l-223 -102q-35 78 -94.5 126t-139.5 48q-135 0 -218 -122.5t-83 -340.5q0 -217 83 -340t218 -123q73 0 128.5 42.5t84.5 105.5t41 143h-307v240h586q0 -371 -138 -573t-411 -202q-253 0 -409 195t-156 512z " />
<glyph unicode="H" horiz-adv-x="1249" d="M121 0v1366h274v-543h459v543h274v-1366h-274v582h-459v-582h-274z" />
<glyph unicode="I" horiz-adv-x="516" d="M121 0v1366h274v-1366h-274z" />
<glyph unicode="J" horiz-adv-x="858" d="M14 80l99 217q75 -78 170 -78q84 0 132 49t48 138v960h274v-969q0 -211 -115 -316.5t-311 -105.5q-184 0 -297 105z" />
<glyph unicode="K" horiz-adv-x="1136" d="M121 0v1366h274v-621l387 621h320l-438 -643l471 -723h-326l-315 532l-99 -151v-381h-274z" />
<glyph unicode="L" horiz-adv-x="903" d="M115 0v1366h274v-1124h461v-242h-735z" />
<glyph unicode="M" horiz-adv-x="1509" d="M121 0v1366h366l267 -803l270 803h365v-1366h-273v920l-309 -920h-105l-307 920v-920h-274z" />
<glyph unicode="N" horiz-adv-x="1247" d="M121 0v1366h278l453 -803v803h274v-1366h-262l-469 834v-834h-274z" />
<glyph unicode="O" horiz-adv-x="1280" d="M68 682q0 205 67.5 364t198.5 251t307 92q175 0 306.5 -92t199 -251.5t67.5 -363.5t-67.5 -363.5t-199 -251.5t-306.5 -92q-176 0 -307 92t-198.5 251t-67.5 364zM348 682q0 -204 77.5 -333.5t215.5 -129.5q91 0 157.5 61.5t100 165.5t33.5 236q0 204 -77.5 333.5 t-213.5 129.5q-138 0 -215.5 -129t-77.5 -334z" />
<glyph unicode="P" horiz-adv-x="1095" d="M121 0v1366h504q103 0 185.5 -35t134 -95.5t79 -138.5t27.5 -167q0 -120 -46.5 -216.5t-145 -157t-234.5 -60.5h-230v-496h-274zM395 735h197q80 0 129 53.5t49 141.5q0 89 -49 141.5t-129 52.5h-197v-389z" />
<glyph unicode="Q" horiz-adv-x="1280" d="M68 682q0 205 67.5 364t198.5 251t307 92q175 0 306.5 -92t199 -251.5t67.5 -363.5q0 -173 -50 -316.5t-144 -238.5l55 -88l-190 -115l-54 84q-94 -33 -190 -33q-176 0 -307 92t-198.5 251t-67.5 364zM348 682q0 -204 77.5 -333.5t215.5 -129.5q28 0 55 6l-133 215 l191 117l112 -184q66 123 66 309q0 204 -77.5 333.5t-213.5 129.5q-138 0 -215.5 -129t-77.5 -334z" />
<glyph unicode="R" horiz-adv-x="1132" d="M121 0v1366h510q188 0 304 -121t116 -311q0 -85 -21 -155t-57 -116t-77 -75.5t-87 -44.5l252 -543h-305l-211 494h-150v-494h-274zM395 735h197q80 0 129 53t49 142t-49 141.5t-129 52.5h-197v-389z" />
<glyph unicode="S" horiz-adv-x="1024" d="M35 154l133 213q59 -67 146.5 -107.5t185.5 -40.5q90 0 139 43t49 109q0 49 -34 85.5t-87.5 62t-119 50.5t-131 59t-119 78t-87.5 116.5t-34 166.5q0 168 122.5 284t327.5 116q251 0 416 -152l-129 -209q-120 117 -293 117q-74 0 -119 -38.5t-45 -100.5q0 -38 26.5 -69.5 t69 -52.5t97.5 -45.5t112.5 -47.5t112.5 -59.5t97.5 -79.5t69 -110t26.5 -149q0 -185 -122 -301.5t-343 -116.5q-291 0 -467 179z" />
<glyph unicode="T" horiz-adv-x="974" d="M45 1124v242h885v-242h-305v-1124h-275v1124h-305z" />
<glyph unicode="U" horiz-adv-x="1251" d="M121 473v893h276v-895q0 -123 59.5 -188.5t168.5 -65.5t169 66t60 188v895h276v-893q0 -236 -135.5 -367t-369.5 -131q-233 0 -368.5 131.5t-135.5 366.5z" />
<glyph unicode="V" horiz-adv-x="1140" d="M-4 1366h297l276 -1040l277 1040h297l-408 -1366h-329z" />
<glyph unicode="W" horiz-adv-x="1576" d="M12 1366h293l178 -946l199 946h215l197 -946l178 946h293l-314 -1366h-284l-179 907l-178 -907h-284z" />
<glyph unicode="X" horiz-adv-x="1142" d="M-4 0l403 698l-379 668h316l235 -457l234 457h317l-381 -666l404 -700h-316l-258 483l-260 -483h-315z" />
<glyph unicode="Y" horiz-adv-x="1107" d="M-8 1366h303l260 -549l258 549h303l-424 -803v-563h-274v563z" />
<glyph unicode="Z" horiz-adv-x="995" d="M74 0v227l499 897h-499v242h835v-221l-506 -903h521v-242h-850z" />
<glyph unicode="[" horiz-adv-x="495" d="M84 -389v1778h375v-164h-197v-1450h197v-164h-375z" />
<glyph unicode="\" horiz-adv-x="569" d="M0 1407h176l393 -1448h-176z" />
<glyph unicode="]" horiz-adv-x="495" d="M37 -225h196v1450h-196v164h375v-1778h-375v164z" />
<glyph unicode="^" horiz-adv-x="796" d="M39 682l270 684h180l269 -684h-180l-181 502l-178 -502h-180z" />
<glyph unicode="_" horiz-adv-x="864" d="M-6 -82h876v-164h-876v164z" />
<glyph unicode="`" horiz-adv-x="440" d="M0 1434h219l221 -295h-164z" />
<glyph unicode="a" horiz-adv-x="1038" d="M59 496q0 236 100.5 377t268.5 141q75 0 142 -38.5t110 -113.5v127h246v-989h-246v125q-45 -72 -112 -111t-140 -39q-169 0 -269 139t-100 382zM313 496q0 -135 50.5 -219t144.5 -84q50 0 98.5 33t73.5 83v371q-25 49 -73.5 82t-98.5 33q-94 0 -144.5 -82.5t-50.5 -216.5 z" />
<glyph unicode="b" horiz-adv-x="1038" d="M111 0v1366h245v-504q44 75 111.5 113.5t142.5 38.5q167 0 267 -141t100 -377q0 -242 -100 -381.5t-267 -139.5q-75 0 -142 39t-112 111v-125h-245zM356 307q27 -50 74.5 -82t99.5 -32q93 0 143 83.5t50 219.5q0 134 -50.5 217.5t-142.5 83.5q-51 0 -99 -33t-75 -84v-373 z" />
<glyph unicode="c" horiz-adv-x="868" d="M59 496q0 227 126 372.5t329 145.5q109 0 189 -37.5t126 -95.5l-118 -170q-68 86 -168 86q-104 0 -167 -84.5t-63 -216.5q0 -133 63 -218t167 -85q99 0 168 88l118 -172q-45 -59 -125 -96.5t-190 -37.5q-203 0 -329 146t-126 375z" />
<glyph unicode="d" horiz-adv-x="1038" d="M59 496q0 236 100.5 377t268.5 141q75 0 142 -38.5t110 -113.5v504h246v-1366h-246v125q-45 -72 -112 -111t-140 -39q-169 0 -269 139t-100 382zM313 496q0 -135 50.5 -219t144.5 -84q50 0 98.5 33t73.5 83v373q-25 49 -73.5 82t-98.5 33q-94 0 -144.5 -83.5 t-50.5 -217.5z" />
<glyph unicode="e" horiz-adv-x="987" d="M59 496q0 144 53.5 261t156.5 187t237 70q201 0 313.5 -146.5t112.5 -382.5v-71h-625q9 -105 71.5 -171.5t170.5 -66.5q57 0 117 26t100 72l115 -151q-65 -71 -160 -109.5t-197 -38.5q-210 0 -337.5 143.5t-127.5 377.5zM307 586h389q-1 41 -11.5 79t-32 72.5t-60.5 55 t-90 20.5q-95 0 -143 -68.5t-52 -158.5z" />
<glyph unicode="f" horiz-adv-x="587" d="M29 774v215h127v68q0 157 78 243t210 86q99 0 166 -34l-45 -191q-27 17 -63 17q-46 0 -73.5 -31.5t-27.5 -89.5v-68h162v-215h-162v-774h-245v774h-127z" />
<glyph unicode="g" horiz-adv-x="1036" d="M59 510q0 236 99.5 370t269.5 134q75 0 141.5 -38.5t110.5 -113.5v127h246v-956q0 -98 -26.5 -175t-70 -125t-104.5 -79t-123.5 -43t-132.5 -12q-113 0 -202 30t-165 99l97 188q106 -109 258 -109q94 0 158.5 55.5t64.5 170.5v129q-45 -73 -112 -113.5t-140 -40.5 q-170 0 -269.5 131.5t-99.5 370.5zM313 510q0 -132 50 -208.5t145 -76.5q50 0 98.5 33t73.5 82v342q-25 49 -73.5 82t-98.5 33q-95 0 -145 -77.5t-50 -209.5z" />
<glyph unicode="h" d="M111 0v1366h247v-506q41 63 121 108.5t170 45.5q135 0 200.5 -70t65.5 -199v-745h-245v653q0 144 -131 144q-56 0 -104.5 -36.5t-76.5 -86.5v-674h-247z" />
<glyph unicode="i" horiz-adv-x="466" d="M86 1247q0 61 43.5 105.5t103.5 44.5q61 0 105.5 -44.5t44.5 -105.5t-44 -104t-106 -43q-60 0 -103.5 43t-43.5 104zM111 0v989h245v-989h-245z" />
<glyph unicode="j" horiz-adv-x="466" d="M-143 -342l59 188q39 -39 92 -39q48 0 75.5 34.5t27.5 103.5v1044h245v-1044q0 -346 -317 -346q-63 0 -103.5 13.5t-78.5 45.5zM86 1247q0 61 43.5 105.5t103.5 44.5q61 0 105.5 -44.5t44.5 -105.5t-44 -104t-106 -43q-60 0 -103.5 43t-43.5 104z" />
<glyph unicode="k" horiz-adv-x="964" d="M111 0v1366h245v-823l306 446h286l-315 -444l325 -545h-288l-207 389l-107 -147v-242h-245z" />
<glyph unicode="l" horiz-adv-x="544" d="M111 238v1128h245v-1071q0 -48 19 -75t55 -27q51 0 72 28l51 -188q-65 -58 -191 -58q-128 0 -189.5 65.5t-61.5 197.5z" />
<glyph unicode="m" horiz-adv-x="1527" d="M111 0v989h245v-129q33 56 113.5 105t167.5 49q95 0 157.5 -44t82.5 -128q36 69 117.5 120.5t170.5 51.5q120 0 186 -64.5t66 -197.5v-752h-246v664q0 133 -114 133q-52 0 -97.5 -37t-72.5 -86v-674h-246v664q0 133 -115 133q-52 0 -97.5 -37t-72.5 -86v-674h-245z" />
<glyph unicode="n" d="M111 0v989h245v-129q43 63 123 108.5t170 45.5q134 0 200 -71.5t66 -201.5v-741h-245v649q0 148 -131 148q-57 0 -105 -36t-78 -87v-674h-245z" />
<glyph unicode="o" horiz-adv-x="1019" d="M59 496q0 142 50.5 258t154.5 188t246 72t246.5 -72t154.5 -188t50 -258q0 -106 -29.5 -199.5t-85 -165.5t-142.5 -114t-194 -42t-193.5 42t-142 114t-85.5 165.5t-30 199.5zM315 496q0 -131 50 -217t145 -86q96 0 145.5 85.5t49.5 217.5q0 130 -49.5 215.5t-145.5 85.5 q-95 0 -145 -85.5t-50 -215.5z" />
<glyph unicode="p" horiz-adv-x="1034" d="M111 -377v1366h245v-125q45 72 112 111t142 39q168 0 267.5 -138.5t99.5 -379.5t-99.5 -381t-267.5 -140q-75 0 -142.5 38.5t-111.5 113.5v-504h-245zM356 309q25 -50 73.5 -83t100.5 -33q92 0 142.5 84t50.5 219t-50 218t-143 83q-52 0 -99.5 -32.5t-74.5 -82.5v-373z " />
<glyph unicode="q" horiz-adv-x="1034" d="M59 496q0 242 98.5 380t268.5 138q75 0 142 -39t110 -111v125h246v-1366h-246v504q-44 -75 -110.5 -113.5t-141.5 -38.5q-169 0 -268 140t-99 381zM311 496q0 -135 51 -219t144 -84q50 0 98.5 33t73.5 83v373q-25 50 -73 82.5t-99 32.5q-93 0 -144 -83t-51 -218z" />
<glyph unicode="r" horiz-adv-x="655" d="M111 0v989h245v-135q42 68 118.5 114t152.5 46v-242q-32 8 -58 8q-59 0 -120.5 -35t-92.5 -86v-659h-245z" />
<glyph unicode="s" horiz-adv-x="845" d="M35 117l104 174q48 -50 124.5 -85.5t148.5 -35.5q71 0 109 28t38 76q0 33 -27 56.5t-70 39t-95 31t-104.5 39t-95.5 56.5t-70 89.5t-27 131.5q0 126 96 211.5t264 85.5q202 0 346 -127l-98 -170q-40 43 -106 72.5t-138 29.5q-59 0 -96 -27t-37 -67q0 -29 27.5 -50.5 t71 -36.5t96.5 -31t106 -40.5t96.5 -58t71 -91.5t27.5 -134q0 -136 -103.5 -222t-275.5 -86q-119 0 -219 38t-164 104z" />
<glyph unicode="t" horiz-adv-x="608" d="M25 774v215h127v271h247v-271h162v-215h-162v-479q0 -102 72 -102q49 0 74 28l49 -188q-65 -58 -188 -58q-129 0 -191.5 65.5t-62.5 197.5v536h-127z" />
<glyph unicode="u" d="M111 244v745h245v-653q0 -143 131 -143q57 0 105.5 34.5t75.5 83.5v678h247v-989h-247v125q-43 -62 -121.5 -106t-169.5 -44q-135 0 -200.5 70t-65.5 199z" />
<glyph unicode="v" horiz-adv-x="921" d="M-4 989h262l201 -694l205 694h262l-334 -989h-264z" />
<glyph unicode="w" horiz-adv-x="1417" d="M6 989h254l158 -670l174 670h225l180 -670l158 670h256l-266 -989h-260l-176 672l-179 -672h-258z" />
<glyph unicode="x" horiz-adv-x="901" d="M4 0l293 504l-279 485h269l164 -311l163 311h267l-277 -485l295 -504h-268l-180 330l-181 -330h-266z" />
<glyph unicode="y" d="M109 -272l96 188q47 -54 114.5 -81.5t137.5 -27.5q101 0 156 60t55 166v131q-43 -63 -121 -106.5t-170 -43.5q-135 0 -200.5 70t-65.5 199v706h245v-614q0 -144 131 -144q57 0 105 35t76 84v639h247v-956q0 -204 -118.5 -319t-327.5 -115q-225 0 -360 129z" />
<glyph unicode="z" horiz-adv-x="837" d="M72 0v184l374 590h-374v215h688v-176l-379 -598h387v-215h-696z" />
<glyph unicode="{" horiz-adv-x="518" d="M8 430v139q52 0 79.5 39t27.5 99v399q0 123 83 203t195 80h90v-164h-90q-42 0 -71 -33.5t-29 -85.5v-424q0 -142 -94 -182q94 -40 94 -183v-423q0 -52 29 -85.5t71 -33.5h90v-164h-90q-112 0 -195 79t-83 204v399q0 60 -27.5 98.5t-79.5 38.5z" />
<glyph unicode="|" horiz-adv-x="405" d="M121 -41v1448h164v-1448h-164z" />
<glyph unicode="}" horiz-adv-x="518" d="M35 -225h90q42 0 71 33.5t29 85.5v423q0 143 94 183q-94 40 -94 182v424q0 52 -29 85.5t-71 33.5h-90v164h90q113 0 195.5 -79.5t82.5 -203.5v-399q0 -60 27.5 -99t79.5 -39v-139q-52 0 -79.5 -38.5t-27.5 -98.5v-399q0 -125 -82.5 -204t-195.5 -79h-90v164z" />
<glyph unicode="~" horiz-adv-x="950" d="M53 862q5 64 11.5 115.5t19 113t33 107t49 85t71 60.5t95.5 21q57 0 98 -27t61 -68t36.5 -88.5t25.5 -88.5t26.5 -68t41.5 -27q49 0 72 88.5t36 280.5l168 -16q-4 -64 -10 -115.5t-18 -113t-32.5 -107t-48.5 -85t-71 -60.5t-96 -21q-57 0 -98 27t-61 67.5t-36.5 87.5 t-25.5 87.5t-26.5 67.5t-41.5 27q-49 0 -72.5 -88.5t-36.5 -277.5z" />
<glyph unicode="&#xa1;" horiz-adv-x="516" d="M98 854q0 63 48 110.5t112 47.5t111 -47.5t47 -110.5q0 -65 -47 -112.5t-111 -47.5t-112 48t-48 112zM109 -377l41 930h215l43 -930h-299z" />
<glyph unicode="&#xa2;" horiz-adv-x="868" d="M59 496q0 195 94.5 331.5t254.5 173.5v156h178v-147q154 -21 243 -129l-118 -170q-56 68 -125 82v-596q67 14 125 84l118 -172q-82 -107 -243 -129v-185h-178v193q-160 37 -254.5 174.5t-94.5 333.5zM313 496q0 -91 30 -161.5t85 -107.5v535q-55 -37 -85 -106.5 t-30 -159.5z" />
<glyph unicode="&#xa3;" horiz-adv-x="999" d="M53 559v158h121q-80 134 -80 254q0 119 64.5 215.5t165.5 148t213 51.5q152 0 257.5 -66t149.5 -194l-219 -110q-19 68 -61.5 107.5t-102.5 39.5q-71 0 -120.5 -54t-49.5 -142q0 -27 4 -53.5t8.5 -44.5t15 -42.5t17 -36.5t20.5 -37.5t19 -35.5h221v-158h-170q4 -32 4 -51 q0 -70 -34.5 -138.5t-87.5 -107.5q41 17 88 17q54 0 122 -30t111 -30q54 0 96 19.5t64 48.5l90 -217q-37 -42 -107 -68.5t-159 -26.5q-70 0 -128 21.5t-106 43t-94 21.5q-89 0 -207 -75l-84 188q88 49 140.5 118.5t52.5 145.5q0 55 -25 121h-209z" />
<glyph unicode="&#xa5;" horiz-adv-x="1107" d="M-8 1366h303l260 -549l258 549h303l-344 -649h285v-154h-365v-172h365v-153h-365v-238h-274v238h-369v153h369v172h-369v154h287z" />
<glyph unicode="&#xa6;" horiz-adv-x="405" d="M121 -41v647h164v-647h-164zM121 760v647h164v-647h-164z" />
<glyph unicode="&#xa7;" horiz-adv-x="854" d="M37 -20l102 159q46 -49 119 -88t150 -39q70 0 110.5 33t40.5 86q0 38 -27 66t-70 46.5t-95 36t-104.5 41.5t-95.5 56t-70 86.5t-27 126.5q0 89 52.5 154t129.5 92q-182 90 -182 268q0 122 99 202t253 80q225 0 352 -131l-98 -145q-99 102 -236 102q-65 0 -102 -28.5 t-37 -77.5q0 -35 27.5 -60.5t71 -43t96.5 -34.5t106 -41t96.5 -56.5t71 -88t27.5 -127.5q0 -78 -42 -146t-120 -108q80 -46 121 -107.5t41 -150.5q0 -137 -107.5 -223t-271.5 -86q-235 0 -381 146zM295 629q0 -58 42.5 -94.5t127.5 -67.5q100 44 100 137q0 112 -135 164 q-135 -32 -135 -139z" />
<glyph unicode="&#xa8;" horiz-adv-x="585" d="M-33 1249q0 55 38.5 94t94.5 39q55 0 93 -38.5t38 -94.5t-38 -94.5t-93 -38.5q-56 0 -94.5 39t-38.5 94zM352 1249q0 55 39.5 94t93.5 39q55 0 94 -39t39 -94t-39 -94t-94 -39q-54 0 -93.5 39t-39.5 94z" />
<glyph unicode="&#xa9;" horiz-adv-x="1593" d="M90 684q0 192 95 355t258 257.5t354 94.5q144 0 275 -56t225 -150.5t150 -225.5t56 -275q0 -143 -56 -274t-150 -226t-225 -151t-275 -56q-191 0 -354 95t-258 258t-95 354zM164 684q0 -128 50.5 -245.5t135 -202t202 -135t245.5 -50.5t245.5 50.5t202 135t135 202 t50.5 245.5t-50.5 245.5t-135 202t-202 135t-245.5 50.5t-245.5 -50.5t-202 -135t-135 -202t-50.5 -245.5zM381 686q0 186 123.5 309t302.5 123q184 0 301 -137l-61 -61q-40 54 -104 86t-136 32q-138 0 -237 -99.5t-99 -252.5q0 -151 99 -252.5t237 -101.5q73 0 137.5 32 t104.5 87l63 -60q-120 -139 -305 -139q-179 0 -302.5 124t-123.5 310z" />
<glyph unicode="&#xaa;" horiz-adv-x="704" d="M51 862q0 100 60.5 154.5t146.5 54.5q61 0 107 -21.5t71 -54.5v82q0 53 -33.5 84t-89.5 31q-92 0 -163 -80l-68 117q51 50 121.5 74t142.5 24q121 0 194.5 -58.5t73.5 -183.5v-417h-178v65q-26 -35 -72 -58.5t-106 -23.5q-85 0 -146 56t-61 155zM229 866q0 -46 27.5 -73 t71.5 -27q75 0 108 59v80q-34 60 -108 60q-43 0 -71 -27.5t-28 -71.5z" />
<glyph unicode="&#xab;" horiz-adv-x="931" d="M61 498l256 362h209l-256 -362l256 -369h-209zM406 498l256 362h208l-256 -362l256 -369h-208z" />
<glyph unicode="&#xac;" horiz-adv-x="919" d="M59 801v153h791v-540h-160v387h-631z" />
<glyph unicode="&#xad;" horiz-adv-x="555" d="M61 391v209h433v-209h-433z" />
<glyph unicode="&#xae;" horiz-adv-x="1011" d="M72 952q0 181 127 307.5t307 126.5q119 0 219 -57.5t157.5 -157.5t57.5 -219q0 -180 -126.5 -307t-307.5 -127q-180 0 -307 127t-127 307zM135 952q0 -152 108.5 -261t262.5 -109t262.5 109t108.5 261q0 155 -108.5 263t-262.5 108t-262.5 -108t-108.5 -263zM340 702v498 h203q66 0 114 -42t48 -109q0 -72 -46 -110t-81 -38l133 -199h-86l-129 197h-86v-197h-70zM410 961h133q34 0 62 25.5t28 62.5q0 39 -28 65.5t-62 26.5h-133v-180z" />
<glyph unicode="&#xaf;" horiz-adv-x="636" d="M0 1210v142h637v-142h-637z" />
<glyph unicode="&#xb0;" horiz-adv-x="630" d="M43 1112q0 114 79 194t191 80q114 0 194.5 -80t80.5 -194q0 -113 -80.5 -192.5t-194.5 -79.5q-112 0 -191 79.5t-79 192.5zM178 1112q0 -57 39.5 -96t95.5 -39q57 0 98.5 39t41.5 96t-41.5 98t-98.5 41q-55 0 -95 -41t-40 -98z" />
<glyph unicode="&#xb1;" horiz-adv-x="909" d="M59 25v153h791v-153h-791zM59 641v154h312v342h168v-342h311v-154h-311v-358h-168v358h-312z" />
<glyph unicode="&#xb2;" horiz-adv-x="710" d="M55 1559q53 66 131 100.5t166 34.5q133 0 215 -65.5t82 -182.5q0 -91 -71.5 -184t-249.5 -250h327v-150h-579v137q241 204 315 287t74 150q0 51 -33.5 79.5t-87.5 28.5q-55 0 -104.5 -28t-79.5 -72z" />
<glyph unicode="&#xb3;" horiz-adv-x="710" d="M49 979l105 117q35 -47 86 -73t104 -26q64 0 96.5 28.5t32.5 76.5q0 104 -147 104q-64 0 -76 -2v148q14 -2 72 -2q139 0 139 98q0 48 -33.5 72t-89.5 24q-110 0 -180 -88l-101 107q108 131 295 131q134 0 212.5 -59.5t78.5 -164.5q0 -69 -47.5 -121.5t-116.5 -64.5 q70 -8 124 -61t54 -133q0 -108 -84 -175t-221 -67q-102 0 -181 36t-122 95z" />
<glyph unicode="&#xb4;" horiz-adv-x="440" d="M0 1139l221 295h219l-276 -295h-164z" />
<glyph unicode="&#xb5;" d="M111 -377v1366h245v-653q0 -143 131 -143q57 0 105.5 34.5t75.5 83.5v678h247v-989h-247v125q-43 -62 -121.5 -106t-169.5 -44h-21v-352h-245z" />
<glyph unicode="&#xb6;" horiz-adv-x="919" d="M55 1014q0 146 103.5 249t249.5 103h409v-1571h-123v1448h-164v-1448h-122v867q-146 0 -249.5 103t-103.5 249z" />
<glyph unicode="&#xb7;" horiz-adv-x="516" d="M100 500q0 65 47 112t111 47t111 -47t47 -112q0 -63 -47 -110.5t-111 -47.5t-111 47.5t-47 110.5z" />
<glyph unicode="&#xb8;" horiz-adv-x="413" d="M0 -334l49 98q69 -57 146 -57q40 0 67 18.5t27 51.5q0 25 -13.5 40t-39.5 15q-35 0 -60 -29l-90 52l61 168h123l-51 -129q26 20 66 20q55 0 92 -39.5t37 -101.5q0 -78 -61 -125t-152 -47q-121 0 -201 65z" />
<glyph unicode="&#xb9;" horiz-adv-x="540" d="M16 1425l258 256h162v-819h-188v582l-125 -131z" />
<glyph unicode="&#xba;" horiz-adv-x="733" d="M55 989q0 91 35.5 167t108 123.5t168.5 47.5q145 0 228 -98t83 -240t-83 -240t-228 -98q-96 0 -168.5 47.5t-108 123.5t-35.5 167zM240 989q0 -89 32 -141.5t95 -52.5q64 0 95.5 52t31.5 142t-31.5 140.5t-95.5 50.5q-63 0 -95 -51t-32 -140z" />
<glyph unicode="&#xbb;" horiz-adv-x="931" d="M61 129l256 369l-256 362h209l256 -362l-256 -369h-209zM406 129l256 369l-256 362h208l256 -362l-256 -369h-208z" />
<glyph unicode="&#xbc;" horiz-adv-x="1519" d="M16 1110l258 256h162v-819h-188v581l-125 -131zM305 0l723 1366h129l-725 -1366h-127zM852 180v135l299 504h242v-493h88v-146h-88v-180h-187v180h-354zM1024 326h182v313z" />
<glyph unicode="&#xbd;" horiz-adv-x="1591" d="M16 1110l258 256h162v-819h-188v581l-125 -131zM305 0l723 1366h129l-725 -1366h-127zM936 696q53 66 131 100.5t166 34.5q133 0 215 -65t82 -182q0 -91 -72 -184t-250 -250h328v-150h-580v137q242 205 316 287t74 149q0 51 -33.5 80t-87.5 29q-55 0 -105 -28t-80 -72z " />
<glyph unicode="&#xbe;" horiz-adv-x="1648" d="M49 664l105 116q35 -46 86 -72t104 -26q64 0 96.5 28t32.5 76q0 105 -147 105q-64 0 -76 -2v147q14 -2 72 -2q139 0 139 99q0 48 -33.5 72t-89.5 24q-110 0 -180 -88l-101 106q108 131 295 131q135 0 213 -59t78 -164q0 -69 -47.5 -121.5t-116.5 -64.5q70 -8 124 -61.5 t54 -133.5q0 -108 -84 -175t-221 -67q-102 0 -181 36t-122 96zM434 0l723 1366h129l-725 -1366h-127zM981 180v135l299 504h242v-493h88v-146h-88v-180h-187v180h-354zM1153 326h182v313z" />
<glyph unicode="&#xbf;" horiz-adv-x="704" d="M35 -92q0 63 21.5 119t54 93.5t70 75.5t70 68.5t54 69.5t21.5 80q0 53 -37 90l209 69q59 -68 59 -180q0 -64 -25.5 -118t-61.5 -90.5t-72 -69.5t-61.5 -72t-25.5 -82q0 -50 37 -85.5t101 -35.5q109 0 184 97l135 -173q-69 -79 -164 -121t-203 -42q-168 0 -267 85.5 t-99 221.5zM244 852q0 65 46.5 112.5t110.5 47.5q65 0 112.5 -48t47.5 -112q0 -63 -48 -110.5t-112 -47.5t-110.5 47.5t-46.5 110.5z" />
<glyph unicode="&#xc0;" horiz-adv-x="1140" d="M-4 0l410 1366h329l408 -1366h-297l-64 242h-424l-65 -242h-297zM281 1786h219l221 -295h-164zM412 483h317l-160 594z" />
<glyph unicode="&#xc1;" horiz-adv-x="1140" d="M-4 0l410 1366h329l408 -1366h-297l-64 242h-424l-65 -242h-297zM412 483h317l-160 594zM424 1491l221 295h219l-276 -295h-164z" />
<glyph unicode="&#xc2;" horiz-adv-x="1140" d="M-4 0l410 1366h329l408 -1366h-297l-64 242h-424l-65 -242h-297zM301 1491l158 295h221l164 -295h-144l-131 186l-125 -186h-143zM412 483h317l-160 594z" />
<glyph unicode="&#xc3;" horiz-adv-x="1140" d="M-4 0l410 1366h329l408 -1366h-297l-64 242h-424l-65 -242h-297zM272 1499q0 127 52 201t147 74q42 0 74 -23t48.5 -50t38 -50t44.5 -23q31 0 49 33.5t18 99.5h129q0 -127 -51 -200.5t-145 -73.5q-35 0 -62.5 15t-45 36.5t-32 42.5t-31.5 36t-36 15q-31 0 -49.5 -33.5 t-18.5 -99.5h-129zM412 483h317l-160 594z" />
<glyph unicode="&#xc4;" horiz-adv-x="1140" d="M-4 0l410 1366h329l408 -1366h-297l-64 242h-424l-65 -242h-297zM246 1604q0 56 39 94.5t94 38.5t93 -38.5t38 -94.5t-38 -95t-93 -39t-94 39t-39 95zM412 483h317l-160 594zM631 1604q0 55 39.5 94t93.5 39q56 0 94.5 -38.5t38.5 -94.5t-39 -95t-94 -39 q-54 0 -93.5 39.5t-39.5 94.5z" />
<glyph unicode="&#xc5;" horiz-adv-x="1140" d="M-4 0l410 1366h329l408 -1366h-297l-64 242h-424l-65 -242h-297zM373 1618q0 82 58 140.5t140 58.5q83 0 140 -58.5t57 -140.5q0 -83 -57 -141t-140 -58q-82 0 -140 58t-58 141zM412 483h317l-160 594zM483 1618q0 -37 25.5 -62.5t62.5 -25.5t62.5 25.5t25.5 62.5 t-25.5 62.5t-62.5 25.5t-62.5 -25.5t-25.5 -62.5z" />
<glyph unicode="&#xc6;" horiz-adv-x="1617" d="M-4 0l649 1366h899v-242h-510v-309h496v-240h-496v-333h510v-242h-784v242h-361l-106 -242h-297zM498 483h262v594z" />
<glyph unicode="&#xc7;" horiz-adv-x="1146" d="M68 682q0 207 70 367t202.5 250t308.5 90q312 0 457 -328l-227 -100q-32 85 -91.5 134.5t-138.5 49.5q-139 0 -220 -128.5t-81 -334.5q0 -205 81 -334t220 -129q81 0 141 55t91 144l227 -99q-138 -325 -424 -342l-29 -75q26 20 66 20q55 0 92 -39.5t37 -101.5 q0 -78 -61 -125t-152 -47q-121 0 -201 65l49 99q71 -58 146 -58q40 0 67 18.5t27 51.5q0 25 -13.5 40t-39.5 15q-36 0 -60 -28l-90 51l43 119q-230 32 -363.5 222t-133.5 478z" />
<glyph unicode="&#xc8;" horiz-adv-x="987" d="M121 0v1366h784v-242h-510v-309h496v-240h-496v-333h510v-242h-784zM225 1786h219l222 -295h-164z" />
<glyph unicode="&#xc9;" horiz-adv-x="987" d="M121 0v1366h784v-242h-510v-309h496v-240h-496v-333h510v-242h-784zM369 1491l221 295h219l-277 -295h-163z" />
<glyph unicode="&#xca;" horiz-adv-x="987" d="M121 0v1366h784v-242h-510v-309h496v-240h-496v-333h510v-242h-784zM242 1491l157 295h222l163 -295h-143l-131 186l-125 -186h-143z" />
<glyph unicode="&#xcb;" horiz-adv-x="987" d="M121 0v1366h784v-242h-510v-309h496v-240h-496v-333h510v-242h-784zM190 1604q0 55 39 94t95 39q55 0 93 -38.5t38 -94.5t-38 -95t-93 -39q-56 0 -95 39t-39 95zM575 1604q0 55 40 94t94 39q55 0 94 -38.5t39 -94.5t-39 -95t-94 -39q-54 0 -94 39.5t-40 94.5z" />
<glyph unicode="&#xcc;" horiz-adv-x="516" d="M-35 1786h219l222 -295h-164zM121 0v1366h274v-1366h-274z" />
<glyph unicode="&#xcd;" horiz-adv-x="516" d="M115 1491l221 295h219l-276 -295h-164zM121 0v1366h274v-1366h-274z" />
<glyph unicode="&#xce;" horiz-adv-x="516" d="M-14 1491l157 295h222l163 -295h-143l-131 186l-125 -186h-143zM121 0v1366h274v-1366h-274z" />
<glyph unicode="&#xcf;" horiz-adv-x="516" d="M-66 1602q0 55 39 94t95 39q55 0 93 -38.5t38 -94.5t-38 -95t-93 -39q-56 0 -95 39t-39 95zM121 0v1366h274v-1366h-274zM319 1602q0 55 40 94t94 39q55 0 94 -38.5t39 -94.5t-39 -95t-94 -39q-54 0 -94 39.5t-40 94.5z" />
<glyph unicode="&#xd0;" horiz-adv-x="1275" d="M25 571v203h145v592h440q141 0 255 -51t189 -142t115.5 -216.5t40.5 -274.5q0 -200 -69 -353.5t-205.5 -241t-323.5 -87.5h-442v571h-145zM444 242h166q151 0 234.5 120t83.5 320q0 207 -81.5 324.5t-234.5 117.5h-168v-350h222v-203h-222v-329z" />
<glyph unicode="&#xd1;" horiz-adv-x="1247" d="M121 0v1366h278l453 -803v803h274v-1366h-262l-469 834v-834h-274zM322 1499q0 127 51.5 201t146.5 74q42 0 74 -23t48.5 -50t38 -50t44.5 -23q31 0 49.5 33.5t18.5 99.5h129q0 -126 -51.5 -200t-145.5 -74q-35 0 -62.5 15t-45 36.5t-32 42.5t-31.5 36t-36 15 q-31 0 -49 -33.5t-18 -99.5h-129z" />
<glyph unicode="&#xd2;" horiz-adv-x="1280" d="M68 682q0 205 67.5 364t198.5 251t307 92q175 0 306.5 -92t199 -251.5t67.5 -363.5t-67.5 -363.5t-199 -251.5t-306.5 -92q-176 0 -307 92t-198.5 251t-67.5 364zM348 682q0 -204 77.5 -333.5t215.5 -129.5q91 0 157.5 61.5t100 165.5t33.5 236q0 204 -77.5 333.5 t-213.5 129.5q-138 0 -215.5 -129t-77.5 -334zM352 1786h219l222 -295h-164z" />
<glyph unicode="&#xd3;" horiz-adv-x="1280" d="M68 682q0 205 67.5 364t198.5 251t307 92q175 0 306.5 -92t199 -251.5t67.5 -363.5t-67.5 -363.5t-199 -251.5t-306.5 -92q-176 0 -307 92t-198.5 251t-67.5 364zM348 682q0 -204 77.5 -333.5t215.5 -129.5q91 0 157.5 61.5t100 165.5t33.5 236q0 204 -77.5 333.5 t-213.5 129.5q-138 0 -215.5 -129t-77.5 -334zM494 1491l221 295h219l-277 -295h-163z" />
<glyph unicode="&#xd4;" horiz-adv-x="1280" d="M68 682q0 205 67.5 364t198.5 251t307 92q175 0 306.5 -92t199 -251.5t67.5 -363.5t-67.5 -363.5t-199 -251.5t-306.5 -92q-176 0 -307 92t-198.5 251t-67.5 364zM348 682q0 -204 77.5 -333.5t215.5 -129.5q91 0 157.5 61.5t100 165.5t33.5 236q0 204 -77.5 333.5 t-213.5 129.5q-138 0 -215.5 -129t-77.5 -334zM373 1491l157 295h222l163 -295h-143l-131 186l-125 -186h-143z" />
<glyph unicode="&#xd5;" horiz-adv-x="1280" d="M68 682q0 205 67.5 364t198.5 251t307 92q175 0 306.5 -92t199 -251.5t67.5 -363.5t-67.5 -363.5t-199 -251.5t-306.5 -92q-176 0 -307 92t-198.5 251t-67.5 364zM342 1499q0 127 52 201t147 74q42 0 74 -23t48 -50t37.5 -50t44.5 -23q31 0 49.5 33.5t18.5 99.5h129 q0 -126 -51.5 -200t-145.5 -74q-35 0 -62.5 15t-44.5 36.5t-31.5 42.5t-31.5 36t-36 15q-31 0 -49.5 -33.5t-18.5 -99.5h-129zM348 682q0 -204 77.5 -333.5t215.5 -129.5q91 0 157.5 61.5t100 165.5t33.5 236q0 204 -77.5 333.5t-213.5 129.5q-138 0 -215.5 -129t-77.5 -334 z" />
<glyph unicode="&#xd6;" horiz-adv-x="1280" d="M68 682q0 205 67.5 364t198.5 251t307 92q175 0 306.5 -92t199 -251.5t67.5 -363.5t-67.5 -363.5t-199 -251.5t-306.5 -92q-176 0 -307 92t-198.5 251t-67.5 364zM315 1604q0 55 39 94t95 39q55 0 93 -38.5t38 -94.5t-38 -95t-93 -39t-94.5 39t-39.5 95zM348 682 q0 -204 77.5 -333.5t215.5 -129.5q91 0 157.5 61.5t100 165.5t33.5 236q0 204 -77.5 333.5t-213.5 129.5q-138 0 -215.5 -129t-77.5 -334zM700 1604q0 55 40 94t94 39q56 0 94.5 -38.5t38.5 -94.5t-39 -95t-94 -39q-54 0 -94 39.5t-40 94.5z" />
<glyph unicode="&#xd7;" horiz-adv-x="909" d="M98 436l248 248l-248 248l109 108l248 -247l247 247l109 -108l-248 -248l248 -248l-109 -108l-247 247l-248 -247z" />
<glyph unicode="&#xd8;" horiz-adv-x="1280" d="M68 682q0 205 67.5 364t198.5 251t307 92q159 0 291 -82l37 59h178l-100 -162q167 -195 167 -522q0 -204 -67.5 -363.5t-199 -251.5t-306.5 -92q-173 0 -303 88l-39 -63h-178l104 168q-157 195 -157 514zM348 682q0 -150 39 -254l408 657q-63 60 -154 60 q-138 0 -215.5 -129t-77.5 -334zM475 285q69 -66 166 -66q91 0 157.5 61.5t100 165.5t33.5 236q0 149 -45 264z" />
<glyph unicode="&#xd9;" horiz-adv-x="1251" d="M121 473v893h276v-895q0 -123 59.5 -188.5t168.5 -65.5t169 66t60 188v895h276v-893q0 -236 -135.5 -367t-369.5 -131q-233 0 -368.5 131.5t-135.5 366.5zM338 1786h219l221 -295h-164z" />
<glyph unicode="&#xda;" horiz-adv-x="1251" d="M121 473v893h276v-895q0 -123 59.5 -188.5t168.5 -65.5t169 66t60 188v895h276v-893q0 -236 -135.5 -367t-369.5 -131q-233 0 -368.5 131.5t-135.5 366.5zM479 1491l221 295h220l-277 -295h-164z" />
<glyph unicode="&#xdb;" horiz-adv-x="1251" d="M121 473v893h276v-895q0 -123 59.5 -188.5t168.5 -65.5t169 66t60 188v895h276v-893q0 -236 -135.5 -367t-369.5 -131q-233 0 -368.5 131.5t-135.5 366.5zM362 1491l158 295h221l164 -295h-143l-131 186l-125 -186h-144z" />
<glyph unicode="&#xdc;" horiz-adv-x="1251" d="M121 473v893h276v-895q0 -123 59.5 -188.5t168.5 -65.5t169 66t60 188v895h276v-893q0 -236 -135.5 -367t-369.5 -131q-233 0 -368.5 131.5t-135.5 366.5zM301 1604q0 56 38.5 94.5t94.5 38.5q55 0 93 -38.5t38 -94.5t-38 -95t-93 -39t-94 39t-39 95zM686 1604 q0 55 39.5 94t93.5 39q55 0 94 -38.5t39 -94.5t-39 -95t-94 -39q-54 0 -93.5 39.5t-39.5 94.5z" />
<glyph unicode="&#xdd;" horiz-adv-x="1107" d="M-8 1366h303l260 -549l258 549h303l-424 -803v-563h-274v563zM412 1491l221 295h219l-277 -295h-163z" />
<glyph unicode="&#xde;" horiz-adv-x="1095" d="M121 0v1366h274v-223h230q103 0 185.5 -35.5t134 -96.5t79 -139t27.5 -167t-27.5 -166.5t-79 -138t-134 -95.5t-185.5 -35h-230v-270h-274zM395 512h197q80 0 129 53t49 140q0 89 -49 142.5t-129 53.5h-197v-389z" />
<glyph unicode="&#xdf;" horiz-adv-x="1191" d="M117 0v987q0 170 116.5 284.5t311.5 114.5q106 0 196.5 -36.5t146.5 -105.5t56 -154q0 -62 -24 -111.5t-59 -80.5t-69.5 -57.5t-58.5 -55t-24 -60.5q0 -29 25 -50.5t65 -36.5t88 -30.5t96 -40t88 -58t65 -91.5t25 -133q0 -129 -100 -219.5t-262 -90.5q-119 0 -201.5 37.5 t-153.5 108.5l97 170q38 -48 100.5 -83.5t132.5 -35.5q64 0 101.5 30t37.5 77q0 32 -24.5 56t-63.5 41t-86 34t-94 41t-86 55t-63.5 84t-24.5 121q0 56 23 102.5t55.5 76.5t65.5 56t56 54.5t23 58.5q0 50 -43.5 80t-107.5 30q-80 0 -130.5 -47t-50.5 -135v-987h-245z" />
<glyph unicode="&#xe0;" horiz-adv-x="1038" d="M59 496q0 236 100.5 377t268.5 141q75 0 142 -38.5t110 -113.5v127h246v-989h-246v125q-45 -72 -112 -111t-140 -39q-169 0 -269 139t-100 382zM236 1434h219l221 -295h-164zM313 496q0 -135 50.5 -219t144.5 -84q50 0 98.5 33t73.5 83v371q-25 49 -73.5 82t-98.5 33 q-94 0 -144.5 -82.5t-50.5 -216.5z" />
<glyph unicode="&#xe1;" horiz-adv-x="1038" d="M59 496q0 236 100.5 377t268.5 141q75 0 142 -38.5t110 -113.5v127h246v-989h-246v125q-45 -72 -112 -111t-140 -39q-169 0 -269 139t-100 382zM313 496q0 -135 50.5 -219t144.5 -84q50 0 98.5 33t73.5 83v371q-25 49 -73.5 82t-98.5 33q-94 0 -144.5 -82.5t-50.5 -216.5 zM377 1139l221 295h219l-276 -295h-164z" />
<glyph unicode="&#xe2;" horiz-adv-x="1038" d="M59 496q0 236 100.5 377t268.5 141q75 0 142 -38.5t110 -113.5v127h246v-989h-246v125q-45 -72 -112 -111t-140 -39q-169 0 -269 139t-100 382zM256 1139l158 295h221l164 -295h-144l-131 186l-125 -186h-143zM313 496q0 -135 50.5 -219t144.5 -84q50 0 98.5 33t73.5 83 v371q-25 49 -73.5 82t-98.5 33q-94 0 -144.5 -82.5t-50.5 -216.5z" />
<glyph unicode="&#xe3;" horiz-adv-x="1038" d="M59 496q0 236 100.5 377t268.5 141q75 0 142 -38.5t110 -113.5v127h246v-989h-246v125q-45 -72 -112 -111t-140 -39q-169 0 -269 139t-100 382zM227 1147q0 127 52 200.5t147 73.5q42 0 74 -22.5t48.5 -50t38 -50t44.5 -22.5q31 0 49 33.5t18 99.5h129q0 -127 -51 -200.5 t-145 -73.5q-35 0 -62.5 15t-45 36.5t-32 42.5t-31.5 36t-36 15q-31 0 -49.5 -33.5t-18.5 -99.5h-129zM313 496q0 -135 50.5 -219t144.5 -84q50 0 98.5 33t73.5 83v371q-25 49 -73.5 82t-98.5 33q-94 0 -144.5 -82.5t-50.5 -216.5z" />
<glyph unicode="&#xe4;" horiz-adv-x="1038" d="M59 496q0 236 100.5 377t268.5 141q75 0 142 -38.5t110 -113.5v127h246v-989h-246v125q-45 -72 -112 -111t-140 -39q-169 0 -269 139t-100 382zM201 1249q0 55 38.5 94t94.5 39q55 0 93 -38.5t38 -94.5t-38 -94.5t-93 -38.5q-56 0 -94.5 39t-38.5 94zM313 496 q0 -135 50.5 -219t144.5 -84q50 0 98.5 33t73.5 83v371q-25 49 -73.5 82t-98.5 33q-94 0 -144.5 -82.5t-50.5 -216.5zM586 1249q0 55 39.5 94t93.5 39q55 0 94 -39t39 -94t-39 -94t-94 -39q-54 0 -93.5 39t-39.5 94z" />
<glyph unicode="&#xe5;" horiz-adv-x="1038" d="M59 496q0 236 100.5 377t268.5 141q75 0 142 -38.5t110 -113.5v127h246v-989h-246v125q-45 -72 -112 -111t-140 -39q-169 0 -269 139t-100 382zM313 496q0 -135 50.5 -219t144.5 -84q50 0 98.5 33t73.5 83v371q-25 49 -73.5 82t-98.5 33q-94 0 -144.5 -82.5t-50.5 -216.5 zM328 1323q0 82 58 140.5t140 58.5q83 0 140 -58.5t57 -140.5q0 -83 -57 -141t-140 -58q-82 0 -140 58t-58 141zM438 1323q0 -37 25.5 -62.5t62.5 -25.5t62.5 25.5t25.5 62.5t-25.5 62.5t-62.5 25.5t-62.5 -25.5t-25.5 -62.5z" />
<glyph unicode="&#xe6;" horiz-adv-x="1605" d="M59 496q0 236 100.5 377t268.5 141q75 0 142 -38.5t110 -113.5v127h246v-137q81 162 260 162q174 0 270 -146t96 -383v-71h-626q9 -105 71 -169.5t170 -64.5q56 0 116 27t101 72l113 -162q-52 -66 -126.5 -104t-158.5 -38q-201 0 -286 168v-143h-246v125 q-45 -72 -112 -111t-140 -39q-169 0 -269 139t-100 382zM313 496q0 -135 50.5 -219t144.5 -84q50 0 98.5 33t73.5 83v371q-25 49 -73.5 82t-98.5 33q-94 0 -144.5 -82.5t-50.5 -216.5zM926 586h391q-2 41 -12.5 79t-32.5 72.5t-61 55t-91 20.5q-49 0 -87 -20.5t-59.5 -55 t-33.5 -72.5t-14 -79z" />
<glyph unicode="&#xe7;" horiz-adv-x="868" d="M59 496q0 227 126 372.5t329 145.5q109 0 189 -37.5t126 -95.5l-118 -170q-68 86 -168 86q-104 0 -167 -84.5t-63 -216.5q0 -133 63 -218t167 -85q99 0 168 88l118 -172q-87 -112 -264 -129l-30 -82q26 20 65 20q55 0 92 -39.5t37 -101.5q0 -78 -61 -125t-152 -47 q-121 0 -201 65l50 99q71 -58 145 -58q40 0 67 18.5t27 51.5q0 25 -13.5 40t-39.5 15q-34 0 -59 -29l-91 52l43 123q-174 25 -279.5 166t-105.5 348z" />
<glyph unicode="&#xe8;" horiz-adv-x="987" d="M59 496q0 144 53.5 261t156.5 187t237 70q201 0 313.5 -146.5t112.5 -382.5v-71h-625q9 -105 71.5 -171.5t170.5 -66.5q57 0 117 26t100 72l115 -151q-65 -71 -160 -109.5t-197 -38.5q-210 0 -337.5 143.5t-127.5 377.5zM215 1434h219l221 -295h-163zM307 586h389 q-1 41 -11.5 79t-32 72.5t-60.5 55t-90 20.5q-95 0 -143 -68.5t-52 -158.5z" />
<glyph unicode="&#xe9;" horiz-adv-x="987" d="M59 496q0 144 53.5 261t156.5 187t237 70q201 0 313.5 -146.5t112.5 -382.5v-71h-625q9 -105 71.5 -171.5t170.5 -66.5q57 0 117 26t100 72l115 -151q-65 -71 -160 -109.5t-197 -38.5q-210 0 -337.5 143.5t-127.5 377.5zM307 586h389q-1 41 -11.5 79t-32 72.5t-60.5 55 t-90 20.5q-95 0 -143 -68.5t-52 -158.5zM360 1139l222 295h219l-277 -295h-164z" />
<glyph unicode="&#xea;" horiz-adv-x="987" d="M59 496q0 144 53.5 261t156.5 187t237 70q201 0 313.5 -146.5t112.5 -382.5v-71h-625q9 -105 71.5 -171.5t170.5 -66.5q57 0 117 26t100 72l115 -151q-65 -71 -160 -109.5t-197 -38.5q-210 0 -337.5 143.5t-127.5 377.5zM233 1139l158 295h221l164 -295h-143l-131 186 l-125 -186h-144zM307 586h389q-1 41 -11.5 79t-32 72.5t-60.5 55t-90 20.5q-95 0 -143 -68.5t-52 -158.5z" />
<glyph unicode="&#xeb;" horiz-adv-x="987" d="M59 496q0 144 53.5 261t156.5 187t237 70q201 0 313.5 -146.5t112.5 -382.5v-71h-625q9 -105 71.5 -171.5t170.5 -66.5q57 0 117 26t100 72l115 -151q-65 -71 -160 -109.5t-197 -38.5q-210 0 -337.5 143.5t-127.5 377.5zM178 1249q0 55 39 94t94 39t93 -38.5t38 -94.5 t-38 -94.5t-93 -38.5t-94 39t-39 94zM307 586h389q-1 41 -11.5 79t-32 72.5t-60.5 55t-90 20.5q-95 0 -143 -68.5t-52 -158.5zM563 1249q0 55 39.5 94t93.5 39q56 0 94.5 -39t38.5 -94t-38.5 -94t-94.5 -39q-54 0 -93.5 39t-39.5 94z" />
<glyph unicode="&#xec;" horiz-adv-x="466" d="M-57 1434h219l221 -295h-164zM111 0v989h245v-989h-245z" />
<glyph unicode="&#xed;" horiz-adv-x="466" d="M86 1139l221 295h219l-276 -295h-164zM111 0v989h245v-989h-245z" />
<glyph unicode="&#xee;" horiz-adv-x="466" d="M-37 1139l158 295h221l164 -295h-144l-131 186l-125 -186h-143zM111 0v989h245v-989h-245z" />
<glyph unicode="&#xef;" horiz-adv-x="466" d="M-92 1249q0 55 39 94t94 39t93 -38.5t38 -94.5t-38 -94.5t-93 -38.5t-94 39t-39 94zM111 0v989h245v-989h-245zM293 1249q0 55 39.5 94t93.5 39q56 0 94.5 -39t38.5 -94t-38.5 -94t-94.5 -39q-54 0 -93.5 39t-39.5 94z" />
<glyph unicode="&#xf0;" horiz-adv-x="1019" d="M59 463q0 207 104 346t271 139t262 -166q-49 152 -192 322l-254 -113l-49 117l213 94q-55 54 -107 101l174 149q77 -69 156 -154l176 78l49 -112l-143 -64q242 -314 242 -663q0 -257 -117.5 -409.5t-333.5 -152.5q-140 0 -244 66t-155.5 175.5t-51.5 246.5zM315 463 q0 -116 50 -193t145 -77t145 77t50 193q0 115 -50 191.5t-145 76.5t-145 -76.5t-50 -191.5z" />
<glyph unicode="&#xf1;" d="M117 0v989h245v-129q43 63 123 108.5t170 45.5q134 0 200.5 -71.5t66.5 -201.5v-741h-246v649q0 148 -131 148q-57 0 -105 -36t-78 -87v-674h-245zM215 1147q0 127 52 200.5t147 73.5q34 0 61 -15t44 -36.5t31.5 -42.5t31.5 -36t36 -15q31 0 49.5 33.5t18.5 99.5h129 q0 -126 -51.5 -200t-145.5 -74q-35 0 -62.5 15t-44.5 36.5t-31.5 42.5t-31.5 36t-36 15q-31 0 -49.5 -33.5t-18.5 -99.5h-129z" />
<glyph unicode="&#xf2;" horiz-adv-x="1019" d="M59 496q0 142 50.5 258t154.5 188t246 72t246.5 -72t154.5 -188t50 -258q0 -106 -29.5 -199.5t-85 -165.5t-142.5 -114t-194 -42t-193.5 42t-142 114t-85.5 165.5t-30 199.5zM219 1434h219l221 -295h-163zM315 496q0 -131 50 -217t145 -86q96 0 145.5 85.5t49.5 217.5 q0 130 -49.5 215.5t-145.5 85.5q-95 0 -145 -85.5t-50 -215.5z" />
<glyph unicode="&#xf3;" horiz-adv-x="1019" d="M59 496q0 142 50.5 258t154.5 188t246 72t246.5 -72t154.5 -188t50 -258q0 -106 -29.5 -199.5t-85 -165.5t-142.5 -114t-194 -42t-193.5 42t-142 114t-85.5 165.5t-30 199.5zM315 496q0 -131 50 -217t145 -86q96 0 145.5 85.5t49.5 217.5q0 130 -49.5 215.5t-145.5 85.5 q-95 0 -145 -85.5t-50 -215.5zM362 1139l222 295h219l-277 -295h-164z" />
<glyph unicode="&#xf4;" horiz-adv-x="1019" d="M59 496q0 142 50.5 258t154.5 188t246 72t246.5 -72t154.5 -188t50 -258q0 -106 -29.5 -199.5t-85 -165.5t-142.5 -114t-194 -42t-193.5 42t-142 114t-85.5 165.5t-30 199.5zM242 1139l157 295h222l163 -295h-143l-131 186l-125 -186h-143zM315 496q0 -131 50 -217 t145 -86q96 0 145.5 85.5t49.5 217.5q0 130 -49.5 215.5t-145.5 85.5q-95 0 -145 -85.5t-50 -215.5z" />
<glyph unicode="&#xf5;" horiz-adv-x="1019" d="M59 496q0 142 50.5 258t154.5 188t246 72t246.5 -72t154.5 -188t50 -258q0 -106 -29.5 -199.5t-85 -165.5t-142.5 -114t-194 -42t-193.5 42t-142 114t-85.5 165.5t-30 199.5zM211 1147q0 127 52 200.5t147 73.5q34 0 61 -15t44 -36.5t31.5 -42.5t31.5 -36t36 -15 q31 0 49.5 33.5t18.5 99.5h129q0 -126 -51.5 -200t-145.5 -74q-35 0 -62.5 15t-44.5 36.5t-31.5 42.5t-31.5 36t-36 15q-31 0 -49.5 -33.5t-18.5 -99.5h-129zM315 496q0 -131 50 -217t145 -86q96 0 145.5 85.5t49.5 217.5q0 130 -49.5 215.5t-145.5 85.5q-95 0 -145 -85.5 t-50 -215.5z" />
<glyph unicode="&#xf6;" horiz-adv-x="1019" d="M59 496q0 142 50.5 258t154.5 188t246 72t246.5 -72t154.5 -188t50 -258q0 -106 -29.5 -199.5t-85 -165.5t-142.5 -114t-194 -42t-193.5 42t-142 114t-85.5 165.5t-30 199.5zM184 1249q0 55 39 94t94 39t93.5 -38.5t38.5 -94.5t-38.5 -94.5t-93.5 -38.5t-94 39t-39 94z M315 496q0 -131 50 -217t145 -86q96 0 145.5 85.5t49.5 217.5q0 130 -49.5 215.5t-145.5 85.5q-95 0 -145 -85.5t-50 -215.5zM569 1249q0 55 39.5 94t93.5 39q56 0 95 -39t39 -94t-39 -94t-95 -39q-54 0 -93.5 39t-39.5 94z" />
<glyph unicode="&#xf7;" horiz-adv-x="907" d="M59 614v154h789v-154h-789zM334 354q0 50 35 85.5t86 35.5q49 0 83.5 -35.5t34.5 -85.5q0 -51 -34 -86t-84 -35q-51 0 -86 35t-35 86zM334 1024q0 50 35 84.5t86 34.5q49 0 83.5 -34.5t34.5 -84.5q0 -51 -34.5 -87t-83.5 -36q-51 0 -86 36t-35 87z" />
<glyph unicode="&#xf8;" horiz-adv-x="1019" d="M59 496q0 142 50.5 258t154.5 188t246 72q141 0 248 -74l35 49h145l-94 -129q117 -144 117 -364q0 -106 -29.5 -199.5t-85 -165.5t-142.5 -114t-194 -42q-147 0 -252 76l-37 -51h-143l96 133q-115 142 -115 363zM315 496q0 -83 17 -144l289 402q-46 43 -111 43 q-95 0 -145 -85.5t-50 -215.5zM395 240q44 -47 115 -47q96 0 145.5 85.5t49.5 217.5q0 68 -21 143z" />
<glyph unicode="&#xf9;" d="M111 244v745h245v-653q0 -143 131 -143q57 0 105.5 34.5t75.5 83.5v678h247v-989h-247v125q-43 -62 -121.5 -106t-169.5 -44q-135 0 -200.5 70t-65.5 199zM223 1434h219l222 -295h-164z" />
<glyph unicode="&#xfa;" d="M111 244v745h245v-653q0 -143 131 -143q57 0 105.5 34.5t75.5 83.5v678h247v-989h-247v125q-43 -62 -121.5 -106t-169.5 -44q-135 0 -200.5 70t-65.5 199zM367 1139l221 295h219l-277 -295h-163z" />
<glyph unicode="&#xfb;" d="M111 244v745h245v-653q0 -143 131 -143q57 0 105.5 34.5t75.5 83.5v678h247v-989h-247v125q-43 -62 -121.5 -106t-169.5 -44q-135 0 -200.5 70t-65.5 199zM244 1139l157 295h222l163 -295h-143l-131 186l-125 -186h-143z" />
<glyph unicode="&#xfc;" d="M111 244v745h245v-653q0 -143 131 -143q57 0 105.5 34.5t75.5 83.5v678h247v-989h-247v125q-43 -62 -121.5 -106t-169.5 -44q-135 0 -200.5 70t-65.5 199zM193 1249q0 55 38.5 94t94.5 39q55 0 93 -38.5t38 -94.5t-38 -94.5t-93 -38.5q-56 0 -94.5 39t-38.5 94zM578 1249 q0 55 39.5 94t93.5 39q55 0 94 -39t39 -94t-39 -94t-94 -39q-54 0 -93.5 39t-39.5 94z" />
<glyph unicode="&#xfd;" d="M109 -272l96 188q47 -54 114.5 -81.5t137.5 -27.5q101 0 156 60t55 166v131q-43 -63 -121 -106.5t-170 -43.5q-135 0 -200.5 70t-65.5 199v706h245v-614q0 -144 131 -144q57 0 105 35t76 84v639h247v-956q0 -204 -118.5 -319t-327.5 -115q-225 0 -360 129zM365 1139 l221 295h219l-277 -295h-163z" />
<glyph unicode="&#xfe;" horiz-adv-x="1034" d="M111 -377v1743h245v-500q45 72 111.5 110t142.5 38q168 0 267.5 -138.5t99.5 -379.5t-99.5 -381t-267.5 -140q-77 0 -143.5 37.5t-110.5 112.5v-502h-245zM356 309q25 -50 73.5 -83t100.5 -33q92 0 142.5 84t50.5 219t-50 218t-143 83q-52 0 -99.5 -32.5t-74.5 -82.5 v-373z" />
<glyph unicode="&#xff;" d="M109 -272l96 188q47 -54 114.5 -81.5t137.5 -27.5q101 0 156 60t55 166v131q-43 -63 -121 -106.5t-170 -43.5q-135 0 -200.5 70t-65.5 199v706h245v-614q0 -144 131 -144q57 0 105 35t76 84v639h247v-956q0 -204 -118.5 -319t-327.5 -115q-225 0 -360 129zM184 1249 q0 55 39 94t94 39t93.5 -38.5t38.5 -94.5t-38.5 -94.5t-93.5 -38.5t-94 39t-39 94zM569 1249q0 55 39.5 94t93.5 39q56 0 95 -39t39 -94t-39 -94t-95 -39q-54 0 -93.5 39t-39.5 94z" />
<glyph unicode="&#x152;" horiz-adv-x="1767" d="M68 682q0 205 62 363.5t183 249.5t285 91q90 0 175 -39t136 -116v135h783v-242h-508v-309h493v-240h-493v-333h508v-242h-783v135q-51 -79 -136 -119.5t-175 -40.5q-163 0 -284.5 92t-183.5 251t-62 364zM348 682q0 -206 77 -334.5t220 -128.5q89 0 158.5 55t105.5 158 v502q-36 101 -105.5 155t-158.5 54q-143 0 -220 -127.5t-77 -333.5z" />
<glyph unicode="&#x153;" horiz-adv-x="1632" d="M59 496q0 142 50.5 258t154.5 188t246 72q205 0 324 -199q48 88 127 143.5t190 55.5q134 0 231.5 -69t146 -188t48.5 -274v-69h-625q9 -105 71.5 -171.5t170.5 -66.5q57 0 116.5 26.5t100.5 71.5l115 -151q-65 -71 -160 -109.5t-197 -38.5q-216 0 -338 201 q-114 -201 -321 -201q-107 0 -193.5 42t-142 114t-85.5 165.5t-30 199.5zM315 496q0 -134 50.5 -218.5t144.5 -84.5t144.5 84.5t50.5 218.5q0 132 -50.5 216.5t-144.5 84.5t-144.5 -84.5t-50.5 -216.5zM952 586h389q-1 41 -11.5 79t-32 72.5t-60.5 55t-90 20.5 q-65 0 -110.5 -37t-64 -86t-20.5 -104z" />
<glyph unicode="&#x178;" horiz-adv-x="1107" d="M-8 1366h303l260 -549l258 549h303l-424 -803v-563h-274v563zM233 1604q0 55 39 94t95 39q55 0 93 -38.5t38 -94.5t-38 -95t-93 -39t-94.5 39t-39.5 95zM618 1604q0 55 40 94t94 39q56 0 94.5 -38.5t38.5 -94.5t-39 -95t-94 -39q-54 0 -94 39.5t-40 94.5z" />
<glyph unicode="&#x2c6;" horiz-adv-x="542" d="M0 1139l158 295h221l164 -295h-144l-131 186l-125 -186h-143z" />
<glyph unicode="&#x2dc;" horiz-adv-x="600" d="M0 1147q0 127 52 200.5t147 73.5q34 0 61 -15t44 -36.5t31.5 -42.5t31.5 -36t36 -15q31 0 49.5 33.5t18.5 99.5h129q0 -126 -51.5 -200t-145.5 -74q-35 0 -62.5 15t-44.5 36.5t-31.5 42.5t-31.5 36t-36 15q-31 0 -49.5 -33.5t-18.5 -99.5h-129z" />
<glyph unicode="&#x2000;" horiz-adv-x="908" />
<glyph unicode="&#x2001;" horiz-adv-x="1817" />
<glyph unicode="&#x2002;" horiz-adv-x="908" />
<glyph unicode="&#x2003;" horiz-adv-x="1817" />
<glyph unicode="&#x2004;" horiz-adv-x="605" />
<glyph unicode="&#x2005;" horiz-adv-x="454" />
<glyph unicode="&#x2006;" horiz-adv-x="302" />
<glyph unicode="&#x2007;" horiz-adv-x="302" />
<glyph unicode="&#x2008;" horiz-adv-x="227" />
<glyph unicode="&#x2009;" horiz-adv-x="363" />
<glyph unicode="&#x200a;" horiz-adv-x="100" />
<glyph unicode="&#x2010;" horiz-adv-x="555" d="M61 391v209h433v-209h-433z" />
<glyph unicode="&#x2011;" horiz-adv-x="555" d="M61 391v209h433v-209h-433z" />
<glyph unicode="&#x2012;" horiz-adv-x="555" d="M61 391v209h433v-209h-433z" />
<glyph unicode="&#x2013;" horiz-adv-x="1079" d="M61 391v209h957v-209h-957z" />
<glyph unicode="&#x2014;" horiz-adv-x="1509" d="M61 391v209h1387v-209h-1387z" />
<glyph unicode="&#x2018;" horiz-adv-x="518" d="M86 1018q0 110 55 206.5t150 164.5l106 -89q-51 -29 -97 -85t-56 -107q12 4 37 4q58 0 95.5 -39.5t37.5 -101.5q0 -63 -45.5 -109.5t-108.5 -46.5q-72 0 -123 55.5t-51 147.5z" />
<glyph unicode="&#x2019;" horiz-adv-x="518" d="M100 1231q0 64 45.5 109.5t108.5 45.5q73 0 123.5 -54.5t50.5 -147.5q0 -110 -55 -206.5t-150 -162.5l-106 86q51 29 97 86t56 109q-18 -6 -37 -6q-58 0 -95.5 39.5t-37.5 101.5z" />
<glyph unicode="&#x201a;" horiz-adv-x="518" d="M100 139q0 64 45.5 110t108.5 46q72 0 123 -55t51 -148q0 -110 -55 -206t-150 -162l-106 86q51 29 97 85.5t56 108.5q-9 -6 -37 -6q-58 0 -95.5 39.5t-37.5 101.5z" />
<glyph unicode="&#x201c;" horiz-adv-x="923" d="M90 1018q0 110 55 206.5t150 164.5l106 -89q-51 -29 -97 -85t-58 -107q12 4 39 4q56 0 94.5 -39.5t38.5 -101.5q0 -63 -45.5 -109.5t-108.5 -46.5q-72 0 -123 55.5t-51 147.5zM494 1018q0 110 54.5 206.5t149.5 164.5l109 -89q-51 -29 -97.5 -85t-58.5 -107q12 4 37 4 q58 0 96.5 -39.5t38.5 -101.5q0 -63 -45.5 -109.5t-109.5 -46.5q-72 0 -123 55.5t-51 147.5z" />
<glyph unicode="&#x201d;" horiz-adv-x="923" d="M100 1231q0 64 45.5 109.5t108.5 45.5q73 0 123.5 -54.5t50.5 -147.5q0 -110 -55 -206.5t-150 -162.5l-106 86q51 29 97 86t56 109q-18 -6 -37 -6q-58 0 -95.5 39.5t-37.5 101.5zM504 1231q0 65 45 110t110 45q73 0 124 -54.5t51 -147.5q0 -109 -55.5 -205.5 t-149.5 -163.5l-109 86q51 29 97.5 86t58.5 109q-18 -6 -39 -6q-56 0 -94.5 39.5t-38.5 101.5z" />
<glyph unicode="&#x201e;" horiz-adv-x="923" d="M100 139q0 64 45.5 110t108.5 46q72 0 123 -55t51 -148q0 -110 -55 -206t-150 -162l-106 86q51 29 97 85.5t56 108.5q-9 -6 -37 -6q-58 0 -95.5 39.5t-37.5 101.5zM504 139q0 65 45.5 110.5t109.5 45.5q73 0 124 -55t51 -148q0 -109 -55.5 -205t-149.5 -163l-109 86 q51 29 97.5 85.5t58.5 108.5q-9 -6 -39 -6q-56 0 -94.5 39.5t-38.5 101.5z" />
<glyph unicode="&#x2022;" horiz-adv-x="733" d="M129 496q0 100 70 169.5t170 69.5t169.5 -69.5t69.5 -169.5q0 -98 -70 -168t-169 -70q-100 0 -170 70t-70 168z" />
<glyph unicode="&#x2026;" horiz-adv-x="1550" d="M100 135q0 65 47 112.5t111 47.5t111 -47.5t47 -112.5q0 -63 -47 -110.5t-111 -47.5t-111 47.5t-47 110.5zM616 135q0 65 47 112.5t111 47.5t112 -47.5t48 -112.5q0 -63 -48 -110.5t-112 -47.5t-111 47.5t-47 110.5zM1133 135q0 65 46.5 112.5t110.5 47.5q66 0 113 -47.5 t47 -112.5q0 -63 -47 -110.5t-113 -47.5q-64 0 -110.5 47.5t-46.5 110.5z" />
<glyph unicode="&#x202f;" horiz-adv-x="363" />
<glyph unicode="&#x2039;" horiz-adv-x="587" d="M61 498l256 362h209l-256 -362l256 -369h-209z" />
<glyph unicode="&#x203a;" horiz-adv-x="587" d="M61 129l256 369l-256 362h209l256 -362l-256 -369h-209z" />
<glyph unicode="&#x205f;" horiz-adv-x="454" />
<glyph unicode="&#x20ac;" horiz-adv-x="1187" d="M39 465v153h72q-2 20 -2 64q0 12 1 35t1 35h-72v153h92q52 224 198 354t361 130q312 0 457 -328l-227 -100q-32 85 -91.5 134.5t-138.5 49.5q-96 0 -165.5 -64t-104.5 -176h356v-153h-385q-2 -23 -2 -70q0 -44 2 -64h385v-153h-358q35 -115 104.5 -180.5t167.5 -65.5 q81 0 141 55t91 144l227 -99q-144 -344 -459 -344q-216 0 -362 132t-197 358h-92z" />
<glyph unicode="&#x2122;" horiz-adv-x="847" d="M35 1313v53h270v-53h-106v-398h-58v398h-106zM379 915v451h88l111 -324l110 324h88v-451h-57v373l-133 -373h-17l-133 373v-373h-57z" />
<glyph unicode="&#x25fc;" horiz-adv-x="993" d="M0 0v993h993v-993h-993z" />
</font>
</defs>
</svg>
